<svg width="202" height="136" viewBox="0 0 202 136" fill="none" xmlns="http://www.w3.org/2000/svg">
<path fill-rule="evenodd" clip-rule="evenodd" d="M14.4045 67.8246C14.4045 97.7028 38.6256 121.924 68.5038 121.924C98.3819 121.924 122.603 97.7028 122.603 67.8246C122.603 37.9464 98.3819 13.7254 68.5038 13.7254C38.6256 13.7254 14.4045 37.9464 14.4045 67.8246ZM68.5038 0C31.0453 0 0.679138 30.3661 0.679138 67.8246C0.679138 105.283 31.0453 135.649 68.5038 135.649C105.962 135.649 136.328 105.283 136.328 67.8246C136.328 30.3661 105.962 0 68.5038 0Z" fill="#EE2524"/>
<path fill-rule="evenodd" clip-rule="evenodd" d="M188.259 16.3849H85.3806V119.264L188.259 119.264L188.259 16.3849ZM85.3806 2.65955C77.8002 2.65955 71.6552 8.80462 71.6552 16.385V119.264C71.6552 126.844 77.8002 132.989 85.3806 132.989H188.259C195.84 132.989 201.985 126.844 201.985 119.264V16.3849C201.985 8.80462 195.84 2.65955 188.259 2.65955H85.3806Z" fill="#8427F3"/>
</svg>
