<svg width="373" height="71" viewBox="0 0 373 71" fill="none" xmlns="http://www.w3.org/2000/svg">
<path d="M344.461 68.3187V10.2377H324.69V2.10252H372.839V10.2377H353.069V68.3187H344.461Z" fill="currentColor"/>
<path d="M279.773 68.3187V2.10252H317.422V9.85928H288.382V33.7917H317.422V41.5485H288.382V68.3187H279.773Z" fill="currentColor"/>
<path d="M217.419 68.3187V2.10252H226.595L256.392 53.9404V2.10252H264.622V68.3187H255.541L225.649 16.4809V68.3187H217.419Z" fill="currentColor"/>
<path d="M149.8 2.10252H166.259L179.975 48.8323L193.692 2.10252H210.151L187.921 68.3187H172.03L149.8 2.10252Z" fill="currentColor"/>
<path d="M116.239 70.2109C109.05 70.2109 102.775 68.6344 97.4144 65.4812C92.054 62.3281 87.9549 58.1028 85.1171 52.8055C82.2793 47.4452 80.8604 41.5803 80.8604 35.2109C80.8604 28.8416 82.2793 23.0082 85.1171 17.7109C87.9549 12.3506 92.054 8.09382 97.4144 4.94067C102.775 1.78751 109.05 0.210938 116.239 0.210938C123.428 0.210938 129.703 1.78751 135.063 4.94067C140.423 8.09382 144.523 12.3506 147.36 17.7109C150.198 23.0082 151.617 28.8416 151.617 35.2109C151.617 41.5803 150.198 47.4452 147.36 52.8055C144.523 58.1028 140.423 62.3281 135.063 65.4812C129.703 68.6344 123.428 70.2109 116.239 70.2109ZM116.239 56.4947C120.275 56.4947 123.743 55.5488 126.644 53.6569C129.608 51.765 131.847 49.2109 133.36 45.9947C134.874 42.7154 135.631 39.1208 135.631 35.2109C135.631 31.301 134.874 27.738 133.36 24.5217C131.847 21.2425 129.608 18.6569 126.644 16.765C123.743 14.8731 120.275 13.9272 116.239 13.9272C112.14 13.9272 108.608 14.8731 105.644 16.765C102.743 18.6569 100.536 21.2425 99.0225 24.5217C97.509 27.738 96.7838 31.301 96.8468 35.2109C96.7838 39.1208 97.509 42.7154 99.0225 45.9947C100.536 49.2109 102.743 51.765 105.644 53.6569C108.608 55.5488 112.14 56.4947 116.239 56.4947Z" fill="currentColor"/>
<path d="M75.3137 45.0488H69.0705C67.3678 53.0578 63.6155 59.2695 57.8137 63.6839C52.075 68.0353 44.6651 70.2109 35.584 70.2109C28.647 70.2109 22.5299 68.729 17.2326 65.765C11.9353 62.801 7.83624 58.7019 4.93534 53.4677C2.03443 48.1704 0.583984 42.2425 0.583984 35.6839C0.583984 29.1884 1.97137 23.2605 4.74615 17.9001C7.58398 12.4767 11.7146 8.18842 17.138 5.03526C22.5615 1.81905 28.9939 0.210938 36.4353 0.210938C42.2371 0.210938 47.4398 1.18842 52.0434 3.14337C56.7101 5.03526 60.3993 7.68391 63.111 11.0893C65.8227 14.4947 67.3678 18.3416 67.7461 22.6299H51.0029C50.3723 19.792 48.7642 17.4902 46.1786 15.7244C43.6561 13.9587 40.4398 13.0758 36.5299 13.0758C30.0344 13.0758 25.0525 15.1253 21.584 19.2244C18.1786 23.3236 16.5074 28.6524 16.5705 35.2109C16.5705 39.31 17.3588 43.0308 18.9353 46.3731C20.5119 49.6524 22.7506 52.238 25.6515 54.1299C28.6155 55.9587 32.0524 56.8731 35.9624 56.8731C45.2326 56.8731 51.0029 52.9317 53.2732 45.0488H41.4488V33.5082H75.3137V45.0488Z" fill="currentColor"/>
</svg>
