<svg width="379" height="70" viewBox="0 0 379 70" fill="none" xmlns="http://www.w3.org/2000/svg">
<path d="M46.0847 23.0619C45.6298 21.4805 44.9907 20.0833 44.1676 18.8702C43.3444 17.6354 42.3371 16.5956 41.1456 15.7508C39.9759 14.8843 38.6328 14.2235 37.1164 13.7686C35.6217 13.3137 33.9645 13.0863 32.1448 13.0863C28.7438 13.0863 25.7544 13.9311 23.1765 15.6208C20.6203 17.3105 18.6274 19.7692 17.1977 22.9969C15.7679 26.2029 15.0531 30.1239 15.0531 34.7597C15.0531 39.3955 15.7571 43.338 17.1652 46.5874C18.5732 49.8368 20.5662 52.3172 23.144 54.0285C25.7219 55.7182 28.7655 56.563 32.2748 56.563C35.4592 56.563 38.1779 55.9998 40.4308 54.8734C42.7053 53.7252 44.4383 52.1114 45.6298 50.0318C46.8429 47.9522 47.4494 45.4935 47.4494 42.6557L50.3089 43.0781H33.1521V32.4851H60.9994V40.8685C60.9994 46.7174 59.7646 51.7431 57.2951 55.9457C54.8255 60.1265 51.4245 63.3543 47.092 65.6288C42.7595 67.8817 37.7988 69.0082 32.2098 69.0082C25.971 69.0082 20.4904 67.6326 15.7679 64.8815C11.0455 62.1087 7.36286 58.1769 4.72003 53.0862C2.09885 47.9738 0.788269 41.9083 0.788269 34.8896C0.788269 29.4957 1.56812 24.6866 3.12783 20.4624C4.70919 16.2165 6.91878 12.6205 9.75657 9.67441C12.5944 6.7283 15.8979 4.48622 19.6672 2.94818C23.4365 1.41014 27.5199 0.641113 31.9174 0.641113C35.6867 0.641113 39.196 1.19351 42.4454 2.2983C45.6948 3.38143 48.5759 4.91947 51.0887 6.91243C53.6233 8.90538 55.692 11.2774 57.2951 14.0286C58.8981 16.7581 59.9271 19.7692 60.382 23.0619H46.0847Z" fill="currentColor"/>
<path d="M132.721 34.8246C132.721 42.0816 131.346 48.2554 128.595 53.3461C125.865 58.4368 122.139 62.3253 117.417 65.0114C112.716 67.6759 107.43 69.0082 101.56 69.0082C95.646 69.0082 90.3386 67.6651 85.6378 64.9789C80.9371 62.2928 77.2219 58.4044 74.4925 53.3137C71.763 48.2229 70.3982 42.0599 70.3982 34.8246C70.3982 27.5677 71.763 21.3939 74.4925 16.3032C77.2219 11.2124 80.9371 7.33485 85.6378 4.67036C90.3386 1.9842 95.646 0.641113 101.56 0.641113C107.43 0.641113 112.716 1.9842 117.417 4.67036C122.139 7.33485 125.865 11.2124 128.595 16.3032C131.346 21.3939 132.721 27.5677 132.721 34.8246ZM118.457 34.8246C118.457 30.1239 117.753 26.1596 116.345 22.9319C114.958 19.7042 112.998 17.2563 110.463 15.5883C107.929 13.9203 104.961 13.0863 101.56 13.0863C98.1588 13.0863 95.191 13.9203 92.6565 15.5883C90.122 17.2563 88.1507 19.7042 86.7426 22.9319C85.3562 26.1596 84.663 30.1239 84.663 34.8246C84.663 39.5254 85.3562 43.4897 86.7426 46.7174C88.1507 49.9451 90.122 52.393 92.6565 54.061C95.191 55.729 98.1588 56.563 101.56 56.563C104.961 56.563 107.929 55.729 110.463 54.061C112.998 52.393 114.958 49.9451 116.345 46.7174C117.753 43.4897 118.457 39.5254 118.457 34.8246Z" fill="currentColor"/>
<path d="M151.414 1.55094L167.498 52.1114H168.115L184.232 1.55094H199.829L176.889 68.0984H158.757L135.784 1.55094H151.414Z" fill="currentColor"/>
<path d="M262.884 1.55094V68.0984H255.085L218.822 15.8482H218.172V68.0984H210.114V1.55094H217.912L254.305 53.931H254.955V1.55094H262.884Z" fill="currentColor"/>
<path d="M279.009 68.0984V1.55094H318.911V8.69959H287.067V31.1853H315.922V38.334H287.067V68.0984H279.009Z" fill="currentColor"/>
<path d="M329.074 8.69959V1.55094H378.984V8.69959H358.058V68.0984H350V8.69959H329.074Z" fill="currentColor"/>
</svg>
