<svg width="38" height="38" viewBox="0 0 38 38" fill="none" xmlns="http://www.w3.org/2000/svg">
<circle cx="19" cy="19" r="19" fill="#D9D9D9"/>
<path fill-rule="evenodd" clip-rule="evenodd" d="M10.1003 19C10.1003 22.0836 12.6001 24.5834 15.6837 24.5834C18.7674 24.5834 21.2672 22.0836 21.2672 19C21.2672 15.9164 18.7674 13.4166 15.6837 13.4166C12.6001 13.4166 10.1003 15.9164 10.1003 19ZM15.6837 12C11.8177 12 8.68372 15.134 8.68372 19C8.68372 22.866 11.8177 26 15.6837 26C19.5497 26 22.6837 22.866 22.6837 19C22.6837 15.134 19.5497 12 15.6837 12Z" fill="white"/>
<path fill-rule="evenodd" clip-rule="evenodd" d="M28.0435 13.691H17.4256V24.3088L28.0435 24.3088L28.0435 13.691ZM17.4256 12.2744C16.6432 12.2744 16.009 12.9086 16.009 13.691V24.3088C16.009 25.0912 16.6433 25.7254 17.4256 25.7254H28.0435C28.8258 25.7254 29.46 25.0912 29.46 24.3088V13.691C29.46 12.9086 28.8258 12.2744 28.0435 12.2744H17.4256Z" fill="white"/>
</svg>
