<svg width="38" height="38" viewBox="0 0 38 38" fill="none" xmlns="http://www.w3.org/2000/svg">
<g clip-path="url(#clip0_179_196)">
<path d="M19 38C29.4934 38 38 29.4934 38 19C38 8.50659 29.4934 0 19 0C8.50659 0 0 8.50659 0 19C0 29.4934 8.50659 38 19 38Z" fill="#D9D9D9"/>
<path opacity="0.5" d="M8.91797 19C8.91797 15.4717 11.7783 12.6114 15.3066 12.6114V12.6114C18.835 12.6114 21.6952 15.4717 21.6952 19V19C21.6952 22.5284 18.835 25.3887 15.3066 25.3887V25.3887C11.7783 25.3887 8.91797 22.5284 8.91797 19V19Z" fill="white"/>
<path fill-rule="evenodd" clip-rule="evenodd" d="M14.6953 12H28.6953V26H14.6953V12ZM16.8501 14.1547V23.8453H26.5406V14.1547H16.8501Z" fill="white"/>
</g>
<defs>
<clipPath id="clip0_179_196">
<rect width="38" height="38" fill="white"/>
</clipPath>
</defs>
</svg>
