<svg width="24" height="24" viewBox="0 0 24 24" fill="none" xmlns="http://www.w3.org/2000/svg">
<rect width="24" height="24" rx="12" fill="#3396FF"/>
<path d="M6.71596 8.6095C9.68402 5.70813 14.5085 5.70813 17.4877 8.6095L17.8434 8.9541C17.9879 9.09862 17.9879 9.33206 17.8434 9.47657L16.6206 10.666C16.5428 10.7438 16.4205 10.7438 16.3538 10.666L15.8647 10.188C13.786 8.16484 10.4288 8.16484 8.35006 10.188L7.82759 10.6994C7.74978 10.7772 7.6275 10.7772 7.5608 10.6994L6.338 9.50992C6.19349 9.36541 6.19349 9.13197 6.338 8.98745L6.72707 8.6095H6.71596ZM20.0111 11.0773L21.1005 12.1445C21.245 12.289 21.245 12.5225 21.1005 12.667L16.1871 17.4581C16.0426 17.6026 15.798 17.6026 15.6535 17.4581L12.163 14.0565C12.1296 14.0232 12.0629 14.0232 12.0296 14.0565L8.53904 17.4581C8.39453 17.6026 8.14997 17.6026 8.00545 17.4581L3.09203 12.667C2.94751 12.5225 2.94751 12.289 3.09203 12.1445L4.18143 11.0773C4.32594 10.9328 4.5705 10.9328 4.71501 11.0773L8.20555 14.4789C8.2389 14.5123 8.3056 14.5123 8.33894 14.4789L11.8295 11.0773C11.974 10.9328 12.2186 10.9328 12.3631 11.0773L15.8536 14.4789C15.8869 14.5123 15.9536 14.5123 15.987 14.4789L19.4775 11.0773C19.622 10.9328 19.8666 10.9328 20.0111 11.0773Z" fill="white"/>
</svg>
