<svg width="24" height="24" viewBox="0 0 24 24" fill="none" xmlns="http://www.w3.org/2000/svg">
<rect width="24" height="24" rx="12" fill="#EFF0F3"/>
<path d="M18.8509 11.9952H17.1679C16.6652 11.9952 16.2579 12.4151 16.2579 12.9332V15.4512C16.2579 15.9693 15.8506 16.3892 15.348 16.3892H8.65242C8.14975 16.3892 7.74243 16.809 7.74243 17.3272V19.062C7.74243 19.5801 8.14975 20 8.65242 20H15.7355C16.2382 20 16.6397 19.5801 16.6397 19.062V17.6701C16.6397 17.152 17.047 16.7844 17.5497 16.7844H18.8506C19.3532 16.7844 19.7605 16.3646 19.7605 15.8464V12.9223C19.7605 12.4042 19.3535 11.9952 18.8509 11.9952Z" fill="#121826"/>
<path d="M7.74215 8.54878C7.74215 8.03063 8.14947 7.61078 8.65214 7.61078H15.3436C15.8463 7.61078 16.2536 7.19093 16.2536 6.67283V4.93797C16.2536 4.41984 15.8463 4 15.3436 4H8.26422C7.7616 4 7.35428 4.41984 7.35428 4.93797V6.27475C7.35428 6.79285 6.94701 7.2127 6.44434 7.2127H5.14921C4.64655 7.2127 4.23926 7.63255 4.23926 8.1507V11.078C4.23926 11.5961 4.64826 11.9949 5.15092 11.9949H6.8339C7.33657 11.9949 7.74389 11.5751 7.74389 11.0569L7.74215 8.54878Z" fill="#121826"/>
<path d="M11.2079 10.1715H12.8245C13.3513 10.1715 13.7787 10.6124 13.7787 11.1551V12.8215C13.7787 13.3645 13.351 13.8051 12.8245 13.8051H11.2079C10.6811 13.8051 10.2537 13.3642 10.2537 12.8215V11.1551C10.2537 10.6121 10.6814 10.1715 11.2079 10.1715Z" fill="#121826"/>
</svg>
