<svg width="24" height="24" viewBox="0 0 24 24" fill="none" xmlns="http://www.w3.org/2000/svg">
<rect width="24" height="24" rx="12" fill="#EFF0F3"/>
<path d="M17.25 12V9.08333H7.91667C7.60725 9.08333 7.3105 8.96042 7.09171 8.74162C6.87292 8.52283 6.75 8.22609 6.75 7.91667C6.75 7.60725 6.87292 7.3105 7.09171 7.09171C7.3105 6.87292 7.60725 6.75 7.91667 6.75H16.0833V9.08333" stroke="black" stroke-linecap="round" stroke-linejoin="round"/>
<path d="M6.75 7.91663V16.0833C6.75 16.3927 6.87292 16.6895 7.09171 16.9083C7.3105 17.127 7.60725 17.25 7.91667 17.25H17.25V14.3333" stroke="black" stroke-linecap="round" stroke-linejoin="round"/>
<path d="M15.4999 12C15.1905 12 14.8938 12.1229 14.675 12.3417C14.4562 12.5605 14.3333 12.8572 14.3333 13.1667C14.3333 13.4761 14.4562 13.7728 14.675 13.9916C14.8938 14.2104 15.1905 14.3333 15.4999 14.3333H17.8333V12H15.4999Z" stroke="black" stroke-linecap="round" stroke-linejoin="round"/>
</svg>
