<svg width="209" height="30" viewBox="0 0 209 30" fill="none" xmlns="http://www.w3.org/2000/svg">
<path fill-rule="evenodd" clip-rule="evenodd" d="M18 15C18 22.6352 24.1895 28.8247 31.8246 28.8247C39.4597 28.8247 45.6492 22.6352 45.6492 15C45.6492 7.36491 39.4597 1.17542 31.8246 1.17542C24.1895 1.17542 18 7.36491 18 15ZM31.8246 0.175415C23.6372 0.175415 17 6.81262 17 15C17 23.1874 23.6372 29.8247 31.8246 29.8247C40.012 29.8247 46.6492 23.1874 46.6492 15C46.6492 6.81262 40.012 0.175415 31.8246 0.175415Z" fill="currentColor"/>
<path fill-rule="evenodd" clip-rule="evenodd" d="M1 15C1 22.6352 7.18949 28.8247 14.8246 28.8247C22.4597 28.8247 28.6492 22.6352 28.6492 15C28.6492 7.36491 22.4597 1.17542 14.8246 1.17542C7.18949 1.17542 1 7.36491 1 15ZM14.8246 0.175415C6.63721 0.175415 0 6.81262 0 15C0 23.1874 6.63721 29.8247 14.8246 29.8247C23.012 29.8247 29.6492 23.1874 29.6492 15C29.6492 6.81262 23.012 0.175415 14.8246 0.175415Z" fill="currentColor"/>
<path fill-rule="evenodd" clip-rule="evenodd" d="M67 15C67 21.5306 72.2941 26.8247 78.8246 26.8247C85.3552 26.8247 90.6492 21.5306 90.6492 15C90.6492 8.46948 85.3552 3.17542 78.8246 3.17542C72.2941 3.17542 67 8.46948 67 15ZM78.8246 0.175415C70.6372 0.175415 64 6.81262 64 15C64 23.1874 70.6372 29.8247 78.8246 29.8247C87.012 29.8247 93.6492 23.1874 93.6492 15C93.6492 6.81262 87.012 0.175415 78.8246 0.175415Z" fill="#EE2524"/>
<path fill-rule="evenodd" clip-rule="evenodd" d="M145 11.1132L150 14L145 16.8868V14.5H111C110.724 14.5 110.5 14.2761 110.5 14C110.5 13.7239 110.724 13.5 111 13.5H145V11.1132Z" fill="#EE2524"/>
<path fill-rule="evenodd" clip-rule="evenodd" d="M168 15C168 21.5306 173.294 26.8246 179.825 26.8246C186.355 26.8246 191.649 21.5306 191.649 15C191.649 8.46945 186.355 3.17538 179.825 3.17538C173.294 3.17538 168 8.46945 168 15ZM179.825 0.175385C171.637 0.175385 165 6.81259 165 15C165 23.1874 171.637 29.8246 179.825 29.8246C188.012 29.8246 194.649 23.1874 194.649 15C194.649 6.81259 188.012 0.175385 179.825 0.175385Z" fill="#EE2524"/>
<path fill-rule="evenodd" clip-rule="evenodd" d="M206 5H184L184 26H206V5ZM184 2C182.343 2 181 3.34315 181 5V26C181 27.6569 182.343 29 184 29H206C207.657 29 209 27.6569 209 26V5C209 3.34315 207.657 2 206 2H184Z" fill="#8427F3"/>
</svg>
