<svg width="280" height="280" viewBox="0 0 280 280" fill="none" xmlns="http://www.w3.org/2000/svg">
<path d="M140 280C217.32 280 280 217.32 280 140C280 62.6801 217.32 0 140 0C62.6801 0 0 62.6801 0 140C0 217.32 62.6801 280 140 280Z" fill="#FF0420"/>
<path d="M99.1536 177.127C91.8694 177.438 84.6815 175.374 78.6723 171.245C76.0762 169.262 74.0023 166.677 72.6299 163.712C71.2575 160.748 70.6279 157.494 70.7956 154.232C70.8276 152.331 71.0032 150.435 71.3211 148.56C72.2315 143.511 73.5267 137.455 75.2067 130.39C79.9682 111.135 92.2561 101.507 112.07 101.507C117.037 101.425 121.968 102.355 126.564 104.238C130.644 105.837 134.154 108.616 136.646 112.22C139.159 115.934 140.444 120.342 140.318 124.825C140.282 126.69 140.106 128.551 139.793 130.39C138.741 136.622 137.481 142.679 136.013 148.56C133.565 158.152 129.329 165.329 123.305 170.091C117.287 174.782 109.237 177.127 99.1536 177.127ZM100.625 162.003C104.262 162.103 107.811 160.871 110.604 158.537C113.69 155.738 115.789 152.018 116.589 147.929C118.2 141.35 119.425 135.608 120.261 130.705C120.543 129.216 120.684 127.703 120.681 126.188C120.681 119.815 117.356 116.63 110.705 116.631C107.038 116.543 103.46 117.773 100.622 120.097C97.5935 122.925 95.5349 126.637 94.7401 130.705C93.4794 135.396 92.2194 141.137 90.9601 147.929C90.6752 149.382 90.5345 150.86 90.5401 152.34C90.5401 158.782 93.9017 162.003 100.625 162.003Z" fill="white"/>
<path d="M145.154 176.078C144.821 176.098 144.487 176.042 144.178 175.915C143.869 175.788 143.592 175.592 143.369 175.344C143.019 174.779 142.906 174.1 143.054 173.453L157.548 105.183C157.676 104.43 158.086 103.754 158.695 103.292C159.258 102.828 159.962 102.569 160.692 102.558H188.63C195.208 102.235 201.728 103.92 207.326 107.389C209.627 108.896 211.496 110.977 212.749 113.427C214.001 115.877 214.594 118.61 214.468 121.359C214.458 123.197 214.246 125.029 213.837 126.821C212.679 133.898 208.89 140.275 203.229 144.677C197.978 148.528 190.766 150.454 181.593 150.454H167.417L162.585 173.455C162.457 174.208 162.047 174.884 161.438 175.346C160.876 175.81 160.172 176.069 159.443 176.081L145.154 176.078ZM182.335 135.956C185.087 136.016 187.782 135.168 190.002 133.541C192.287 131.863 193.861 129.39 194.414 126.61C194.609 125.571 194.714 124.516 194.728 123.459C194.788 122.605 194.659 121.748 194.35 120.949C194.042 120.15 193.561 119.429 192.942 118.837C191.19 117.542 189.02 116.944 186.851 117.157H174.249L170.258 135.956H182.335Z" fill="white"/>
</svg>
